<svg version="1.1" id="Layer_1" xmlns="http://www.w3.org/2000/svg" xmlns:xlink="http://www.w3.org/1999/xlink" x="0px" y="0px"
	 width="100%" viewBox="0 0 512 512" enable-background="new 0 0 512 512" xml:space="preserve">
<path fill="#541200" opacity="1.000000" stroke="none" 
	d="
M255.000000,513.000000 
	C170.020615,513.000000 85.541229,513.000000 1.030922,513.000000 
	C1.030922,342.395599 1.030922,171.791168 1.030922,1.093376 
	C171.562744,1.093376 342.125549,1.093376 512.844177,1.093376 
	C512.844177,171.666550 512.844177,342.333252 512.844177,513.000000 
	C427.124481,513.000000 341.312225,513.000000 255.000000,513.000000 
M78.354561,406.968475 
	C77.366280,406.856750 76.370056,406.791901 75.390999,406.625824 
	C68.376068,405.435638 61.376507,404.148407 54.346310,403.057983 
	C51.501991,402.616821 49.127522,403.744659 49.167412,406.927948 
	C49.267128,414.884827 48.607849,423.082397 50.336391,430.711334 
	C51.617195,436.364197 55.611141,441.730804 59.412704,446.396973 
	C63.701267,451.660950 69.802979,451.962952 76.604485,451.211487 
	C91.127945,449.606903 104.781631,445.705078 116.381607,436.936310 
	C131.240540,425.704010 143.034546,411.355499 152.146561,395.217499 
	C159.879135,381.522614 166.360916,367.099884 173.000641,352.815338 
	C180.191040,337.346100 187.538269,321.900604 193.658615,305.998871 
	C198.458893,293.526917 201.813431,280.459625 205.220947,267.501831 
	C208.420425,255.335052 210.847702,242.965164 213.613800,230.684448 
	C214.295761,227.656723 214.973953,224.628128 215.653870,221.599945 
	C216.277420,221.669983 216.900970,221.740005 217.524506,221.810043 
	C217.682510,223.666641 217.941696,225.521011 217.982666,227.380188 
	C218.349030,244.009369 218.444244,260.649170 219.141129,277.263916 
	C219.388306,283.157349 220.615585,289.119232 222.221085,294.817200 
	C224.053024,301.318787 233.220123,307.370819 239.507477,305.673065 
	C247.751862,303.446838 256.030457,300.633667 263.583374,296.705811 
	C280.329193,287.997192 292.321228,273.284912 306.360809,261.150024 
	C317.781525,251.278778 329.496735,241.731049 340.606018,231.522614 
	C348.266479,224.483292 355.447540,216.838638 362.120117,208.860077 
	C364.058807,206.541885 364.675568,201.835144 363.872498,198.750763 
	C361.586304,189.970016 358.337585,181.431763 355.257996,172.873520 
	C354.729523,171.404785 353.170715,170.306824 351.582031,168.444672 
	C350.183197,171.027390 349.013580,172.659500 348.361389,174.477264 
	C344.348022,185.663101 337.171661,194.635727 329.311005,203.349258 
	C319.039581,214.735107 307.002930,223.786652 293.860199,231.332489 
	C285.273834,236.262299 276.134430,240.261993 267.104187,244.374100 
	C260.870239,247.212814 254.189423,246.748672 249.271759,242.250381 
	C244.752960,238.116913 240.292755,232.883224 238.321426,227.253647 
	C235.635345,219.583069 234.361526,211.094360 234.212997,202.924988 
	C233.886597,184.973419 234.693100,167.002762 234.952438,149.038666 
	C235.334473,122.576836 235.713242,96.114517 235.932327,69.651077 
	C235.986649,63.087563 230.991135,59.962841 225.547226,63.471149 
	C222.455429,65.463638 219.648239,68.914467 218.291138,72.334740 
	C216.429474,77.026672 215.784042,82.275337 215.108307,87.350777 
	C212.244873,108.858208 209.955154,130.449310 206.701477,151.895386 
	C203.622589,172.189484 199.466156,192.317642 196.026718,212.560089 
	C190.878265,242.860825 182.681900,272.301239 167.219147,298.942047 
	C155.843750,318.540771 143.149979,337.528015 129.448318,355.576630 
	C117.344589,371.520447 103.179100,385.922516 89.574287,400.683014 
	C86.941856,403.539032 82.694481,404.906555 78.354561,406.968475 
M266.177612,331.757385 
	C262.129242,343.103241 259.876862,354.763916 260.002991,366.845642 
	C260.170990,382.939545 273.221283,401.167511 288.530396,405.904388 
	C295.300049,407.999023 302.363220,409.182190 309.331024,410.591919 
	C327.965515,414.362122 346.765778,414.463470 365.180511,410.212402 
	C381.944458,406.342468 398.595856,401.526001 414.742188,395.612396 
	C424.378723,392.082947 433.781647,386.681702 441.808899,380.268524 
	C455.404144,369.406952 460.749695,353.671539 463.096375,336.839020 
	C465.589294,318.957275 462.486420,302.582886 450.669312,288.333832 
	C446.353149,283.129425 437.422211,279.714661 432.006470,281.552490 
	C424.620728,284.058929 426.559967,290.309204 425.918335,295.731506 
	C425.166718,302.083588 424.933502,308.847198 422.485626,314.583069 
	C414.973022,332.186249 404.966034,348.505432 392.842621,363.312317 
	C388.373535,368.770569 383.965515,375.225006 375.708405,376.084412 
	C358.572876,377.867798 341.818237,377.250366 325.053772,372.076752 
	C301.604218,364.840088 288.283295,340.897552 289.083282,319.262268 
	C289.284424,313.823059 290.498718,308.427948 291.006683,302.990112 
	C291.203461,300.883331 290.732910,298.714264 290.566345,296.573547 
	C288.437622,297.564117 286.294922,298.526459 284.192139,299.569336 
	C283.778717,299.774384 283.501556,300.276062 283.191681,300.664948 
	C275.886383,309.831909 270.228027,319.905762 266.177612,331.757385 
z"/>
<path fill="#BE2D01" opacity="1.000000" stroke="none" 
	d="
M78.773315,406.964600 
	C82.694481,404.906555 86.941856,403.539032 89.574287,400.683014 
	C103.179100,385.922516 117.344589,371.520447 129.448318,355.576630 
	C143.149979,337.528015 155.843750,318.540771 167.219147,298.942047 
	C182.681900,272.301239 190.878265,242.860825 196.026718,212.560089 
	C199.466156,192.317642 203.622589,172.189484 206.701477,151.895386 
	C209.955154,130.449310 212.244873,108.858208 215.108307,87.350777 
	C215.784042,82.275337 216.429474,77.026672 218.291138,72.334740 
	C219.648239,68.914467 222.455429,65.463638 225.547226,63.471149 
	C230.991135,59.962841 235.986649,63.087563 235.932327,69.651077 
	C235.713242,96.114517 235.334473,122.576836 234.952438,149.038666 
	C234.693100,167.002762 233.886597,184.973419 234.212997,202.924988 
	C234.361526,211.094360 235.635345,219.583069 238.321426,227.253647 
	C240.292755,232.883224 244.752960,238.116913 249.271759,242.250381 
	C254.189423,246.748672 260.870239,247.212814 267.104187,244.374100 
	C276.134430,240.261993 285.273834,236.262299 293.860199,231.332489 
	C307.002930,223.786652 319.039581,214.735107 329.311005,203.349258 
	C337.171661,194.635727 344.348022,185.663101 348.361389,174.477264 
	C349.013580,172.659500 350.183197,171.027390 351.582031,168.444672 
	C353.170715,170.306824 354.729523,171.404785 355.257996,172.873520 
	C358.337585,181.431763 361.586304,189.970016 363.872498,198.750763 
	C364.675568,201.835144 364.058807,206.541885 362.120117,208.860077 
	C355.447540,216.838638 348.266479,224.483292 340.606018,231.522614 
	C329.496735,241.731049 317.781525,251.278778 306.360809,261.150024 
	C292.321228,273.284912 280.329193,287.997192 263.583374,296.705811 
	C256.030457,300.633667 247.751862,303.446838 239.507477,305.673065 
	C233.220123,307.370819 224.053024,301.318787 222.221085,294.817200 
	C220.615585,289.119232 219.388306,283.157349 219.141129,277.263916 
	C218.444244,260.649170 218.349030,244.009369 217.982666,227.380188 
	C217.941696,225.521011 217.682510,223.666641 217.524506,221.810043 
	C216.900970,221.740005 216.277420,221.669983 215.653870,221.599945 
	C214.973953,224.628128 214.295761,227.656723 213.613800,230.684448 
	C210.847702,242.965164 208.420425,255.335052 205.220947,267.501831 
	C201.813431,280.459625 198.458893,293.526917 193.658615,305.998871 
	C187.538269,321.900604 180.191040,337.346100 173.000641,352.815338 
	C166.360916,367.099884 159.879135,381.522614 152.146561,395.217499 
	C143.034546,411.355499 131.240540,425.704010 116.381607,436.936310 
	C104.781631,445.705078 91.127945,449.606903 76.604485,451.211487 
	C69.802979,451.962952 63.701267,451.660950 59.412704,446.396973 
	C55.611141,441.730804 51.617195,436.364197 50.336391,430.711334 
	C48.607849,423.082397 49.267128,414.884827 49.167412,406.927948 
	C49.127522,403.744659 51.501991,402.616821 54.346310,403.057983 
	C61.376507,404.148407 68.376068,405.435638 75.390999,406.625824 
	C76.370056,406.791901 77.366280,406.856750 78.773315,406.964600 
z"/>
<path fill="#BE2D01" opacity="1.000000" stroke="none" 
	d="
M266.331024,331.395020 
	C270.228027,319.905762 275.886383,309.831909 283.191681,300.664948 
	C283.501556,300.276062 283.778717,299.774384 284.192139,299.569336 
	C286.294922,298.526459 288.437622,297.564117 290.566345,296.573547 
	C290.732910,298.714264 291.203461,300.883331 291.006683,302.990112 
	C290.498718,308.427948 289.284424,313.823059 289.083282,319.262268 
	C288.283295,340.897552 301.604218,364.840088 325.053772,372.076752 
	C341.818237,377.250366 358.572876,377.867798 375.708405,376.084412 
	C383.965515,375.225006 388.373535,368.770569 392.842621,363.312317 
	C404.966034,348.505432 414.973022,332.186249 422.485626,314.583069 
	C424.933502,308.847198 425.166718,302.083588 425.918335,295.731506 
	C426.559967,290.309204 424.620728,284.058929 432.006470,281.552490 
	C437.422211,279.714661 446.353149,283.129425 450.669312,288.333832 
	C462.486420,302.582886 465.589294,318.957275 463.096375,336.839020 
	C460.749695,353.671539 455.404144,369.406952 441.808899,380.268524 
	C433.781647,386.681702 424.378723,392.082947 414.742188,395.612396 
	C398.595856,401.526001 381.944458,406.342468 365.180511,410.212402 
	C346.765778,414.463470 327.965515,414.362122 309.331024,410.591919 
	C302.363220,409.182190 295.300049,407.999023 288.530396,405.904388 
	C273.221283,401.167511 260.170990,382.939545 260.002991,366.845642 
	C259.876862,354.763916 262.129242,343.103241 266.331024,331.395020 
z"/>
</svg>